# xmcd CD database file
#
# Track frame offsets:
#	150
#	19973
#	33973
#	51782
#	70993
#	90595
#	111860
#	131050
#	150858
#	171968
#	191794
#	218310
#	233149
#	253364
#	271705
#	292415
#	311710
#
# Disc length: 4631 seconds
#
# Revision: 0
# Processed by: cddbd v1.5.1PL0 Copyright (c) Steve Scherf et al.
# Submitted via: CDex 1.51
#
DISCID=f5121511
DTITLE=刀郎 - 新阿瓦古丽
DYEAR=1900
DGENRE=Country
TTITLE0=北方天空下
TTITLE1=阿瓦尔古里
TTITLE2=曼丽
TTITLE3=在那遥远的地方
TTITLE4=茶花姑娘
TTITLE5=伤心无奈爱已不存在
TTITLE6=2002年的第一场雪
TTITLE7=新阿瓦尔古里
TTITLE8=新疆好
TTITLE9=萨拉姆毛主席
TTITLE10=艾里莆与赛乃姆
TTITLE11=情人
TTITLE12=草原之夜
TTITLE13=祝酒歌
TTITLE14=敖包相会
TTITLE15=雨中飘荡的回忆
TTITLE16=冲动的惩罚
EXTD=
EXTT0=
EXTT1=
EXTT2=
EXTT3=
EXTT4=
EXTT5=
EXTT6=
EXTT7=
EXTT8=
EXTT9=
EXTT10=
EXTT11=
EXTT12=
EXTT13=
EXTT14=
EXTT15=
EXTT16=
PLAYORDER=
